<?xml version="1.0" encoding="UTF-8"?>
<svg version="1.1" xmlns="http://www.w3.org/2000/svg" width="319" height="265">
<path d="M0 0 C0.66 0.33 1.32 0.66 2 1 C2 1.66 2 2.32 2 3 C2.66 3 3.32 3 4 3 C4 3.66 4 4.32 4 5 C4.86238281 5.37705078 4.86238281 5.37705078 5.7421875 5.76171875 C25.38360099 16.53391265 38.34663373 45.55357324 44.75 65.9375 C49.75093292 83.11874311 50.9254886 101.27121083 49 119 C48.81050781 120.85818359 48.81050781 120.85818359 48.6171875 122.75390625 C45.67040439 146.73000518 35.78799034 168.09311099 21 187 C20.30261719 187.92425781 19.60523438 188.84851563 18.88671875 189.80078125 C13.61141039 196.57528914 7.82126882 201.81917219 1 207 C0.05125 207.75152344 -0.8975 208.50304687 -1.875 209.27734375 C-13.17143198 218.06512661 -24.2974098 223.99836828 -37.6875 228.875 C-38.73252686 229.2565625 -39.77755371 229.638125 -40.85424805 230.03125 C-72.36963657 241.0891066 -109.79744574 238.13097328 -139.94433594 224.09472656 C-142.92935277 222.64997235 -145.87658257 221.14848329 -148.81640625 219.61328125 C-156.32102604 215.75340447 -156.32102604 215.75340447 -164.5625 214.75 C-165.96628906 214.78867187 -165.96628906 214.78867187 -167.3984375 214.828125 C-170.31546891 215.02084179 -173.1416731 215.38198337 -176 216 C-176.0825 215.21625 -176.165 214.4325 -176.25 213.625 C-176.72806339 210.85250896 -176.72806339 210.85250896 -179.0625 209.6875 C-180.0215625 209.3471875 -180.0215625 209.3471875 -181 209 C-181 207.02 -181 205.04 -181 203 C-180.01 202.67 -179.02 202.34 -178 202 C-182.17310658 196.85316856 -186.4904192 195.05154767 -193 194 C-198.01744964 193.77372286 -202.97917737 193.81925039 -208 194 C-204.32261122 187.70620576 -204.32261122 187.70620576 -201 186 C-195.47089157 185.54679439 -191.2339555 186.25534817 -186 188 C-186.66 187.21625 -187.32 186.4325 -188 185.625 C-190 183 -190 183 -190 181 C-190.66 181 -191.32 181 -192 181 C-193.19140625 179.6015625 -193.19140625 179.6015625 -194.5625 177.625 C-197.76187286 173.19327611 -201.34230669 169.21250109 -205.046875 165.19921875 C-207 163 -207 163 -209 160 C-211.6494731 158.90038208 -214.33656576 158.09845636 -217.078125 157.2578125 C-221.36918204 155.41059276 -224.85474586 153.33268309 -226.94140625 149.08251953 C-227.70177692 146.90550589 -228.31124326 144.73572023 -228.875 142.5 C-229.08640625 141.75363281 -229.2978125 141.00726563 -229.515625 140.23828125 C-231.56201959 132.73040501 -231.56201959 132.73040501 -231 129 C-230.05125 128.443125 -229.1025 127.88625 -228.125 127.3125 C-224.6321711 124.72780661 -224.52098358 124.28527602 -223.8125 120.25 C-223.68488281 119.37730469 -223.55726563 118.50460938 -223.42578125 117.60546875 C-222.6103174 112.61542849 -220.80815885 108.21223828 -218 104 C-217.61382075 101.2330846 -217.61382075 101.2330846 -217.5 98.1875 C-217.27445405 93.73860619 -216.42235504 90.207575 -215 86 C-214.6416794 83.73594465 -214.33077229 81.46398199 -214.0625 79.1875 C-213.27497684 73.42836119 -212.12689915 68.38985287 -210 63 C-209.56558594 61.84628906 -209.13117188 60.69257812 -208.68359375 59.50390625 C-205.68334854 51.65318114 -202.30451739 44.23941561 -198 37 C-197.48953125 36.12085937 -196.9790625 35.24171875 -196.453125 34.3359375 C-189.77137022 23.29513317 -180.84838445 12.37653798 -171 4 C-170.34 4 -169.68 4 -169 4 C-169 3.34 -169 2.68 -169 2 C-118.96236601 -38.06335479 -51.03313736 -37.46412592 0 0 Z " fill="#FCFCFC" transform="translate(241,29)"/>
<path d="M0 0 C16.02950005 12.14068643 21.93599845 32.96713783 29.15124512 50.89196777 C31.54022797 56.82542742 33.94077148 62.75406669 36.35662842 68.67663574 C37.22069454 70.80288658 38.074768 72.93294923 38.92822266 75.06347656 C46.07193716 92.71899406 53.8294507 110.7445199 71.875 119.375 C76.57630572 120.31526114 81.22297526 120.15300079 86 120 C86 120.66 86 121.32 86 122 C74.56256139 126.47118019 65.65277569 127.63185372 53.984375 123.32421875 C33.49041146 114.23069304 23.80993418 96.19261173 16.0625 76.1875 C15 73 15 73 15 71 C4.11 71 -6.78 71 -18 71 C-18.33 72.65 -18.66 74.3 -19 76 C-20.27775673 79.02348169 -21.65000403 81.99103073 -23.0390625 84.96484375 C-24.14851945 88.46910412 -24.04655432 90.49631814 -23 94 C-20.53744315 95.45291273 -20.53744315 95.45291273 -18 96 C-18 96.33 -18 96.66 -18 97 C-27.24 97 -36.48 97 -46 97 C-43 95 -43 95 -40.04296875 93.7890625 C-36.31183442 91.59540458 -35.02697643 89.1843105 -33.3125 85.375 C-32.9834668 84.68116211 -32.65443359 83.98732422 -32.31542969 83.27246094 C-31.18433293 80.85938515 -30.08922641 78.43225314 -29 76 C-28.59120605 75.0934668 -28.18241211 74.18693359 -27.76123047 73.25292969 C-24.96193106 67.02172083 -22.23307971 60.76183565 -19.5234375 54.49121094 C-18.18771499 51.43018019 -16.82951266 48.3812114 -15.45770264 45.33630371 C-14.31938393 42.80361495 -13.19508628 40.26483624 -12.07287598 37.72497559 C-11.26654196 35.91218934 -10.44349207 34.10686787 -9.62011719 32.30175781 C-5.99893484 24.40332818 -5.99893484 24.40332818 -7 16 C-9.69367783 10.68112768 -13.41383147 5.22721345 -18.890625 2.5390625 C-23.50166978 1.36068439 -28.28639301 1.72136313 -33 2 C-25.01739516 -7.19287074 -9.57228154 -5.19174592 0 0 Z " fill="#050505" transform="translate(174,86)"/>
<path d="M0 0 C14.85 0 29.7 0 45 0 C39.71609543 3.96292842 36.68649643 6 30 6 C30 18.21 30 30.42 30 43 C39.24 43 48.48 43 58 43 C58 43.66 58 44.32 58 45 C57.34 45 56.68 45 56 45 C55.67 46.32 55.34 47.64 55 49 C46.75 49 38.5 49 30 49 C30.07396352 54.07287752 30.15675255 59.14397873 30.26245117 64.21606445 C30.29571172 65.94155693 30.32374019 67.66715849 30.34643555 69.39282227 C30.37996153 71.87303166 30.43227406 74.3522403 30.48828125 76.83203125 C30.49467117 77.60400345 30.5010611 78.37597565 30.50764465 79.17134094 C30.56390554 83.25987137 30.56390554 83.25987137 32.34448242 86.82299805 C32.89080322 87.21140869 33.43712402 87.59981934 34 88 C34.99 88.99 35.98 89.98 37 91 C24.79 91 12.58 91 0 91 C2.05015243 89.97492378 4.10285708 88.95297962 6.1875 88 C8.17201523 87.12855431 8.17201523 87.12855431 9 85 C9.10845033 82.51390223 9.15730803 80.05538561 9.16113281 77.56860352 C9.16609772 76.80259827 9.17106262 76.03659302 9.17617798 75.24737549 C9.19080937 72.70787668 9.19760267 70.16844032 9.203125 67.62890625 C9.20887498 65.86775205 9.21463273 64.10659788 9.22039795 62.34544373 C9.23091026 58.65078438 9.23675164 54.95614681 9.24023438 51.26147461 C9.24572423 46.52210177 9.26976166 41.78301549 9.29820633 37.04373264 C9.31680762 33.40552421 9.32203693 29.7673852 9.32357025 26.12913322 C9.32660223 24.38158537 9.33464906 22.63403889 9.34775543 20.88653755 C9.36476631 18.44439848 9.36294829 16.00296491 9.35644531 13.56079102 C9.37026749 12.47362038 9.37026749 12.47362038 9.3843689 11.36448669 C9.35447698 7.49601554 9.35447698 7.49601554 7.67694092 4.10166931 C5.27467231 2.52349469 2.74621697 1.79335157 0 1 C0 0.67 0 0.34 0 0 Z " fill="#080808" transform="translate(98,78)"/>
<path d="M0 0 C3.52938553 2.47940633 6.78907054 5.12123565 10 8 C10.96679688 8.86109375 11.93359375 9.7221875 12.9296875 10.609375 C28.98112566 25.46868431 39.56114588 46.14162227 40.46875 68.1640625 C40.50305475 70.65082688 40.51285089 73.13803222 40.5 75.625 C40.49033203 77.59460693 40.49033203 77.59460693 40.48046875 79.60400391 C40.16377753 96.5615685 35.92755949 111.52540041 27 126 C26.01 126.66 25.02 127.32 24 128 C24.62172588 125.19757641 25.47967143 122.78213207 26.7421875 120.20703125 C27.08491699 119.49925537 27.42764648 118.79147949 27.78076172 118.06225586 C28.14186035 117.31983643 28.50295898 116.57741699 28.875 115.8125 C38.26205429 96.03752006 41.2859684 74.30103461 35 53 C34.67128906 51.80761719 34.34257812 50.61523438 34.00390625 49.38671875 C30.95722719 39.23463594 26.17396339 27.18475763 18 20 C18.50789062 20.76441406 19.01578125 21.52882812 19.5390625 22.31640625 C30.03944111 38.65688308 34.44560867 54.12604228 34.4375 73.5 C34.43860275 74.63967224 34.43860275 74.63967224 34.43972778 75.80236816 C34.39510573 93.31733164 30.43328902 106.66453784 22 122 C21.34 122 20.68 122 20 122 C20.78270148 118.12514453 22.36068882 114.67490117 23.9375 111.0625 C30.54940277 95.87299363 32.44284721 82.5751385 32 66 C31.97486328 64.78957031 31.97486328 64.78957031 31.94921875 63.5546875 C30.91147332 46.06126451 22.94044423 29.04105911 11.56640625 15.953125 C10 14 10 14 9 11 C7.68109733 10.30522092 6.34434796 9.64416673 5 9 C3.31051706 7.61062258 1.64618686 6.1904135 0 4.75 C-9.26793978 -2.90772743 -19.44089952 -6.99053005 -31 -10 C-31.67063477 -10.17732666 -32.34126953 -10.35465332 -33.03222656 -10.53735352 C-53.01632372 -15.45404085 -73.98357074 -11.49581801 -91.91015625 -1.89453125 C-96.64204862 1.00681869 -100.81657327 4.36866118 -105 8 C-106.03125 8.763125 -107.0625 9.52625 -108.125 10.3125 C-121.09875954 22.44014479 -128.76854371 39.82327106 -132 57 C-132.19078125 57.94875 -132.3815625 58.8975 -132.578125 59.875 C-135.87473455 84.29432997 -130.17012332 106.98948802 -116 127 C-115.46890625 127.77730469 -114.9378125 128.55460938 -114.390625 129.35546875 C-104.51346149 143.01887827 -88.89775382 152.0823642 -73 157 C-71.80375 157.391875 -70.6075 157.78375 -69.375 158.1875 C-48.21259683 163.28215262 -26.57886945 158.90074428 -8 148.125 C-6.32537576 147.096175 -4.65529706 146.05964092 -3 145 C-3 145.99 -3 146.98 -3 148 C-15.90743467 158.61740594 -32.8112748 162.42417697 -49 162.375 C-49.69696991 162.37412384 -50.39393982 162.37324768 -51.11203003 162.37234497 C-70.18132422 162.29294567 -87.22026561 157.67264395 -102 145 C-102.78761719 144.34386719 -103.57523438 143.68773437 -104.38671875 143.01171875 C-114.08941852 134.64629766 -121.28075733 125.43848534 -127 114 C-127.37898438 113.32453125 -127.75796875 112.6490625 -128.1484375 111.953125 C-131.27313679 106.26758194 -132.63008811 100.30645829 -134 94 C-134.20753906 93.18273437 -134.41507812 92.36546875 -134.62890625 91.5234375 C-140.23022133 66.8463151 -133.59216832 43.23079244 -121 22 C-136.4526498 45.7687705 -142.72303298 68.50468922 -137 97 C-130.80023594 121.07114873 -116.86776286 140.44804614 -95.37109375 153.1796875 C-75.17831931 164.69907295 -49.75734134 168.06234545 -27.12109375 162.04296875 C-16.90035246 158.62752704 -7.32280339 154.46575999 2 149 C-0.51776057 154.86650616 -5.42564138 156.90087208 -11.1015625 159.32421875 C-14.38372537 160.60403167 -17.68155126 161.81775168 -21 163 C-21.84304687 163.31195313 -22.68609375 163.62390625 -23.5546875 163.9453125 C-40.64848385 170.03756518 -64.17554019 169.51006909 -81 163 C-82.15886719 162.5875 -83.31773438 162.175 -84.51171875 161.75 C-93.74912817 158.17291737 -101.2408431 153.02277269 -109 147 C-109.69867188 146.47535156 -110.39734375 145.95070312 -111.1171875 145.41015625 C-122.53994742 136.32985171 -132.29016334 121.77206702 -137 108 C-137.37125 106.91847656 -137.7425 105.83695312 -138.125 104.72265625 C-144.89548883 82.41272424 -143.26416777 55.89476714 -132.75 35.0625 C-118.72263465 11.2310621 -98.24726865 -6.17002888 -71.4140625 -13.65234375 C-46.33271935 -19.6306365 -21.11022439 -14.22944721 0 0 Z " fill="#1B1B1B" transform="translate(206,55)"/>
<path d="M0 0 C0 3.11431294 -0.4193093 4.18716538 -1.79296875 6.88671875 C-2.17372559 7.65201904 -2.55448242 8.41731934 -2.94677734 9.20581055 C-3.56093506 10.43424683 -3.56093506 10.43424683 -4.1875 11.6875 C-8.3652781 20.29875517 -11.59844851 28.74225444 -14 38 C-14.47759766 39.73056641 -14.47759766 39.73056641 -14.96484375 41.49609375 C-22.36947591 73.19610886 -15.45723276 105.5215982 -0.63671875 133.8046875 C1 137 1 137 2 140 C-2.42201911 139.56808185 -4.30694026 136.8300172 -7.125 133.625 C-7.99382813 132.64789063 -8.86265625 131.67078125 -9.7578125 130.6640625 C-12 128 -12 128 -14 125 C-16.6494731 123.90038208 -19.33656576 123.09845636 -22.078125 122.2578125 C-26.36918204 120.41059276 -29.85474586 118.33268309 -31.94140625 114.08251953 C-32.70177692 111.90550589 -33.31124326 109.73572023 -33.875 107.5 C-34.08640625 106.75363281 -34.2978125 106.00726563 -34.515625 105.23828125 C-36.56201959 97.73040501 -36.56201959 97.73040501 -36 94 C-35.05125 93.443125 -34.1025 92.88625 -33.125 92.3125 C-29.6321711 89.72780661 -29.52098358 89.28527602 -28.8125 85.25 C-28.62107422 83.94095703 -28.62107422 83.94095703 -28.42578125 82.60546875 C-27.6103174 77.61542849 -25.80815885 73.21223828 -23 69 C-22.61382075 66.2330846 -22.61382075 66.2330846 -22.5 63.1875 C-22.27445405 58.73860619 -21.42235504 55.207575 -20 51 C-19.6416794 48.73594465 -19.33077229 46.46398199 -19.0625 44.1875 C-18.27497684 38.42836119 -17.12689915 33.38985287 -15 28 C-14.56558594 26.84628906 -14.13117187 25.69257812 -13.68359375 24.50390625 C-5.79377338 3.86251559 -5.79377338 3.86251559 0 0 Z " fill="#F9F9F9" transform="translate(46,64)"/>
<path d="M0 0 C0.33 0 0.66 0 1 0 C1.07476562 0.969375 1.14953125 1.93875 1.2265625 2.9375 C2.18419582 13.37557182 3.53178007 26.66558643 11.39453125 34.3359375 C13.55246549 35.78362252 15.61330794 36.98167805 18 38 C17.34 37.05125 16.68 36.1025 16 35.125 C13.44633233 30.6719852 13.02519159 26.02333704 14 21 C15.52734375 19.203125 15.52734375 19.203125 17 18 C19.1667585 23.63357209 21.0715208 29.29838392 22.83984375 35.0703125 C25.42605658 41.60115298 28.27830059 44.68702134 34.6875 47.5625 C35.33017822 47.85133057 35.97285645 48.14016113 36.63500977 48.43774414 C44.18111542 51.70745191 52.06597047 53.89267514 60 56 C60 56.33 60 56.66 60 57 C53.56593848 57.35907633 48.84556736 56.27124828 42.875 53.9375 C42.04967773 53.62458008 41.22435547 53.31166016 40.37402344 52.98925781 C34.07406631 50.54781101 28.0519777 47.7269045 22.078125 44.578125 C14.62906736 40.73185352 14.62906736 40.73185352 6.4375 39.75 C5.03371094 39.78867188 5.03371094 39.78867188 3.6015625 39.828125 C0.68453109 40.02084179 -2.1416731 40.38198337 -5 41 C-5.0825 40.21625 -5.165 39.4325 -5.25 38.625 C-5.72806339 35.85250896 -5.72806339 35.85250896 -8.0625 34.6875 C-8.701875 34.460625 -9.34125 34.23375 -10 34 C-10 32.02 -10 30.04 -10 28 C-9.01 27.67 -8.02 27.34 -7 27 C-11.17310658 21.85316856 -15.4904192 20.05154767 -22 19 C-27.01744964 18.77372286 -31.97917737 18.81925039 -37 19 C-33.32261122 12.70620576 -33.32261122 12.70620576 -30 11 C-24.47089157 10.54679439 -20.2339555 11.25534817 -15 13 C-15.66 12.21625 -16.32 11.4325 -17 10.625 C-19 8 -19 8 -19 6 C-19.66 6 -20.32 6 -21 6 C-20.67 4.68 -20.34 3.36 -20 2 C-19.01 2 -18.02 2 -17 2 C-15.99491199 3.78881736 -14.99607264 5.58114696 -14 7.375 C-13.443125 8.37273437 -12.88625 9.37046875 -12.3125 10.3984375 C-11 13 -11 13 -11 15 C-10.34 15 -9.68 15 -9 15 C-9 15.66 -9 16.32 -9 17 C-8.34 17 -7.68 17 -7 17 C-5.10731416 18.999819 -3.40114234 21.12063985 -1.65625 23.25 C-0.83640625 24.11625 -0.83640625 24.11625 0 25 C0.66 25 1.32 25 2 25 C1.71125 24.38253906 1.4225 23.76507813 1.125 23.12890625 C-2.07623058 15.82609899 -3.17297205 10.17871291 -1 2.4375 C-0.67 1.633125 -0.34 0.82875 0 0 Z " fill="#D1D1D1" transform="translate(70,204)"/>
<path d="M0 0 C2.65610187 3.18549012 4.04671429 6.3118185 5.48046875 10.19140625 C5.92197266 11.38314453 6.36347656 12.57488281 6.81835938 13.80273438 C7.04289795 14.41979248 7.26743652 15.03685059 7.4987793 15.67260742 C8.18771117 17.56307947 8.88893723 19.44865231 9.59179688 21.33398438 C13 30.60489921 13 30.60489921 13 34 C4.09 34 -4.82 34 -14 34 C-9.70556224 22.50198922 -4.88399667 11.2576203 0 0 Z " fill="#F4F4F4" transform="translate(173,117)"/>
<path d="M0 0 C1.14448111 3.68862136 0.60158734 6.20051287 -0.3359375 9.9375 C-8.32924574 42.32596976 -1.84177499 74.78774766 13.36328125 103.8046875 C15 107 15 107 16 110 C11.57798089 109.56808185 9.69305974 106.8300172 6.875 103.625 C6.00617187 102.64789063 5.13734375 101.67078125 4.2421875 100.6640625 C2 98 2 98 0 95 C-2.50835821 93.9462741 -2.50835821 93.9462741 -5.375 93.125 C-9.90760852 91.58046761 -12.59277948 90.35592285 -15 86 C-15 85.34 -15 84.68 -15 84 C-12.52105044 85.10175536 -10.6754554 86.266293 -8.5625 88 C-6.0630633 89.95077986 -3.94182391 90.89988555 -1 92 C-1.66708984 90.84371094 -1.66708984 90.84371094 -2.34765625 89.6640625 C-2.91355469 88.66117187 -3.47945312 87.65828125 -4.0625 86.625 C-4.63097656 85.62726563 -5.19945312 84.62953125 -5.78515625 83.6015625 C-6.18605469 82.74304688 -6.58695313 81.88453125 -7 81 C-6.505 80.01 -6.505 80.01 -6 79 C-5.92966231 77.12620395 -5.9156978 75.24998898 -5.9375 73.375 C-5.95103516 71.87066406 -5.95103516 71.87066406 -5.96484375 70.3359375 C-5.97644531 69.56507813 -5.98804688 68.79421875 -6 68 C-4.68 68.99 -3.36 69.98 -2 71 C-2.20496094 70.02160156 -2.40992188 69.04320312 -2.62109375 68.03515625 C-7.45437455 44.67181125 -6.43862908 22.94152304 0 0 Z " fill="#969696" transform="translate(32,94)"/>
<path d="M0 0 C0.33 0 0.66 0 1 0 C1.08636719 0.90878906 1.17273438 1.81757813 1.26171875 2.75390625 C3.92897288 26.61237205 14.06287256 46.65067745 31.9765625 62.66015625 C53.61644964 79.66292472 77.26760929 84.09648029 104.38476562 81.79785156 C117.65946165 80.0580917 130.59333163 73.68748541 142 67 C139.48223943 72.86650616 134.57435862 74.90087208 128.8984375 77.32421875 C125.61627463 78.60403167 122.31844874 79.81775168 119 81 C118.15695313 81.31195313 117.31390625 81.62390625 116.4453125 81.9453125 C99.35151615 88.03756518 75.82445981 87.51006909 59 81 C57.84113281 80.5875 56.68226562 80.175 55.48828125 79.75 C46.25087183 76.17291737 38.7591569 71.02277269 31 65 C30.30132812 64.47535156 29.60265625 63.95070312 28.8828125 63.41015625 C12.52283189 50.40510254 1.94649746 29.46150322 -1 9 C-1.02872666 5.74567987 -0.6960064 3.19002935 0 0 Z " fill="#2A2A2A" transform="translate(66,137)"/>
<path d="M0 0 C2.78252056 2.78252056 3.18122629 5.97140666 4.0625 9.6875 C4.23587891 10.38294922 4.40925781 11.07839844 4.58789062 11.79492188 C5.41493067 15.18863794 6.06930564 18.49095535 6.55859375 21.95703125 C6.67146568 24.87089029 6.67146568 24.87089029 8 26 C11.31851526 53.98949742 5.87725255 80.97176198 -7.5625 105.625 C-7.93858398 106.32520264 -8.31466797 107.02540527 -8.70214844 107.74682617 C-12.09706086 113.77867211 -12.09706086 113.77867211 -16 115 C-14.65334113 111.43869361 -13.06107197 108.18711931 -11.1875 104.875 C-5.39103444 94.30911254 -1.16854421 83.60959081 2 72 C2.48533203 70.2365625 2.48533203 70.2365625 2.98046875 68.4375 C7.42807787 49.06012317 6.26496919 28.15135467 1.45751953 8.98535156 C0.77176055 6.00958207 0.37960134 3.02881908 0 0 Z " fill="#929292" transform="translate(282,92)"/>
<path d="M0 0 C0.99 0 1.98 0 3 0 C5.88654107 3.13754465 10 8.71239004 10 13 C10.66 13 11.32 13 12 13 C12 13.66 12 14.32 12 15 C12.66 15 13.32 15 14 15 C15.69140625 16.6796875 15.69140625 16.6796875 17.5625 18.875 C18.18253906 19.59429687 18.80257812 20.31359375 19.44140625 21.0546875 C21 23 21 23 22 25 C19.52788675 24.01642386 17.06060908 23.02531146 14.60546875 22 C4.06802697 17.64202731 -4.72792252 16.73581068 -16 17 C-12.32261122 10.70620576 -12.32261122 10.70620576 -9 9 C-3.47089157 8.54679439 0.7660445 9.25534817 6 11 C5.34 10.21625 4.68 9.4325 4 8.625 C2 6 2 6 2 4 C1.34 4 0.68 4 0 4 C0 2.68 0 1.36 0 0 Z " fill="#434343" transform="translate(49,206)"/>
<path d="M0 0 C0.66 0.33 1.32 0.66 2 1 C2.8449678 3.68314336 3.59615682 6.345395 4.3125 9.0625 C7.14419582 20.14614683 7.14419582 20.14614683 15.0546875 27.84765625 C24.2023286 32.59166257 34.08197029 35.36571304 44 38 C44 38.33 44 38.66 44 39 C37.56593848 39.35907633 32.84556736 38.27124828 26.875 35.9375 C26.04967773 35.62458008 25.22435547 35.31166016 24.37402344 34.98925781 C18.07406631 32.54781101 12.0519777 29.7269045 6.078125 26.578125 C1.391958 24.17557238 -3.28727133 21.98711356 -8.4375 20.8125 C-9.613125 20.544375 -10.78875 20.27625 -12 20 C-12 19.67 -12 19.34 -12 19 C-10.04174127 18.97305149 -8.08337774 18.95362782 -6.125 18.9375 C-5.03445312 18.92589844 -3.94390625 18.91429687 -2.8203125 18.90234375 C0 19 0 19 2 20 C1.34 19.05125 0.68 18.1025 0 17.125 C-2.59438736 12.61702196 -2.76491366 8.0875653 -2 3 C-1.34 2.01 -0.68 1.02 0 0 Z " fill="#A6A6A6" transform="translate(86,222)"/>
<path d="M0 0 C-1.52753906 0.4021875 -1.52753906 0.4021875 -3.0859375 0.8125 C-25.80497252 7.00810683 -47.36124293 17.31061443 -63.6328125 34.75 C-65 36 -65 36 -67 36 C-67.25136719 36.57105469 -67.50273438 37.14210937 -67.76171875 37.73046875 C-69.16457825 40.30164026 -70.82029387 42.16792629 -72.8125 44.3125 C-76.20231784 48.04191707 -79.16549315 51.83681807 -82 56 C-83 54 -83 54 -82.37890625 51.765625 C-80.67459461 48.34734557 -78.42858166 45.60987902 -75.9375 42.75 C-75.451604 42.18514893 -74.96570801 41.62029785 -74.46508789 41.03833008 C-65.85240498 31.12721039 -65.85240498 31.12721039 -61 27 C-60.34 27 -59.68 27 -59 27 C-59 26.34 -59 25.68 -59 25 C-45.80638062 14.43633797 -17.58408301 -6.35833426 0 0 Z " fill="#C2C2C2" transform="translate(131,6)"/>
<path d="M0 0 C2.171875 1.07421875 2.171875 1.07421875 4.75 2.6875 C5.63945312 3.24308594 6.52890625 3.79867188 7.4453125 4.37109375 C8.28835937 4.90863281 9.13140625 5.44617188 10 6 C10.65742188 6.40347656 11.31484375 6.80695312 11.9921875 7.22265625 C13.36789649 8.08823392 14.69149326 9.03583714 16 10 C16 10.66 16 11.32 16 12 C16.66 12 17.32 12 18 12 C18 12.66 18 13.32 18 14 C18.57492188 14.25136719 19.14984375 14.50273438 19.7421875 14.76171875 C32.32170388 21.66086528 47.33700478 43.17307425 51.59765625 56.9296875 C52.55517288 60.93677391 53.38823863 64.92159084 54 69 C51.28786446 66.28786446 50.25111999 63.05075386 48.8125 59.5625 C43.16634824 46.29967765 35.00893048 35.20751777 25.28515625 24.62890625 C24 23 24 23 24 21 C23.13761719 20.61908203 23.13761719 20.61908203 22.2578125 20.23046875 C19.74451577 18.86076551 17.96001301 17.27056572 15.875 15.3125 C11.8639317 11.66003714 7.67084588 8.55464462 3.1640625 5.54296875 C1.22063889 4.15731473 -0.37798022 2.74236318 -2 1 C-1.34 0.67 -0.68 0.34 0 0 Z " fill="#A2A2A2" transform="translate(227,20)"/>
<path d="M0 0 C2.73128701 1.3656435 3.49830901 3.45630303 4.9296875 6.05664062 C5.9150359 7.84573125 6.95515691 9.60436512 8 11.359375 C12.12434915 18.35143566 15.77780349 25.13430444 18 33 C18.53173828 34.87751953 18.53173828 34.87751953 19.07421875 36.79296875 C20.60589658 43.91940234 20.44053708 51.24352432 20.4375 58.5 C20.43823517 59.25978149 20.43897034 60.01956299 20.43972778 60.80236816 C20.39510573 78.31733164 16.43328902 91.66453784 8 107 C7.34 107 6.68 107 6 107 C6.78270148 103.12514453 8.36068882 99.67490117 9.9375 96.0625 C16.54940277 80.87299363 18.44284721 67.5751385 18 51 C17.98324219 50.19304687 17.96648437 49.38609375 17.94921875 48.5546875 C17.08738472 34.0266282 11.17270102 17.53239564 1.75390625 6.328125 C0 4 0 4 0 0 Z " fill="#2F2F2F" transform="translate(220,70)"/>
<path d="M0 0 C0.66 0 1.32 0 2 0 C3.71004313 2.3849805 5.27878238 4.7542359 6.8125 7.25 C7.48744507 8.34501831 7.48744507 8.34501831 8.17602539 9.4621582 C16.98397339 24.03461212 20.58786207 38.6214923 20.5 55.625 C20.49355469 56.93807129 20.48710937 58.25114258 20.48046875 59.60400391 C20.16377753 76.5615685 15.92755949 91.52540041 7 106 C5.515 106.99 5.515 106.99 4 108 C4.62172588 105.19757641 5.47967143 102.78213207 6.7421875 100.20703125 C7.25628174 99.14536743 7.25628174 99.14536743 7.78076172 98.06225586 C8.14186035 97.31983643 8.50295898 96.57741699 8.875 95.8125 C18.26205429 76.03752006 21.2859684 54.30103461 15 33 C14.67128906 31.80761719 14.34257812 30.61523438 14.00390625 29.38671875 C11.40587644 20.72961597 7.73959439 13.62351902 2.890625 6.046875 C1 3 1 3 0 0 Z " fill="#262626" transform="translate(226,75)"/>
<path d="M0 0 C0.26167969 0.59683594 0.52335938 1.19367188 0.79296875 1.80859375 C2.06912679 4.12550204 3.29003635 5.38085063 5.3125 7.0625 C5.88613281 7.54847656 6.45976562 8.03445312 7.05078125 8.53515625 C9.01101327 10.09531889 9.01101327 10.09531889 11.4921875 11.2734375 C14.80044657 13.55108627 15.98951501 16.00787785 17.8125 19.5625 C18.41707031 20.71878906 19.02164062 21.87507813 19.64453125 23.06640625 C21 26 21 26 21 28 C14.89580099 26.7542451 11.45168397 24.30284347 7 20 C8.98 22.97 8.98 22.97 11 26 C8.53199953 24.84826645 6.95216435 23.95216435 5 22 C4.04597839 19.23333732 3.18221454 16.49632501 2.375 13.6875 C2.14554688 12.92759766 1.91609375 12.16769531 1.6796875 11.38476562 C0.54483666 7.497226 -0.31058063 4.09476047 0 0 Z " fill="#F8F8F8" transform="translate(10,158)"/>
<path d="M0 0 C1.00377686 0.00563965 2.00755371 0.0112793 3.04174805 0.01708984 C23.72571753 0.34750992 45.4644377 5.03921989 63.125 16.3125 C63.62 17.7975 63.62 17.7975 64.125 19.3125 C59.89518894 17.98673833 55.9881555 16.3666078 52 14.4375 C33.03845242 5.6116834 14.15563257 3.11037547 -6.5625 3.25 C-7.84833984 3.25451172 -9.13417969 3.25902344 -10.45898438 3.26367188 C-13.59770653 3.27533999 -16.73632728 3.29170985 -19.875 3.3125 C-19.875 2.9825 -19.875 2.6525 -19.875 2.3125 C-13.13552552 0.58283937 -6.94781549 -0.0413455 0 0 Z " fill="#979797" transform="translate(158.875,0.6875)"/>
<path d="M0 0 C0.66 0.33 1.32 0.66 2 1 C1.71125 2.21171875 1.4225 3.4234375 1.125 4.671875 C-5.30939944 33.08689307 -2.08515667 57.97393364 13 83 C12.01 83 11.02 83 10 83 C8.52007417 80.31640116 7.04892402 77.62860084 5.58984375 74.93359375 C4.67848126 73.25193962 3.75901449 71.57449753 2.81640625 69.91015625 C-0.27124645 64.22743357 -1.63388124 58.28899643 -3 52 C-3.20753906 51.18273437 -3.41507812 50.36546875 -3.62890625 49.5234375 C-7.19205869 33.82563304 -6.3803314 14.86894623 0 0 Z " fill="#282828" transform="translate(75,97)"/>
<path d="M0 0 C0.33 0 0.66 0 1 0 C1.09796875 1.01578125 1.1959375 2.0315625 1.296875 3.078125 C2.1361814 11.02104192 3.36481541 18.14307834 6.29296875 25.64453125 C7 28 7 28 6 31 C1.38211328 32.4088468 -3.22422512 33.28363377 -8 34 C-8.38218767 32.34385343 -8.71395102 30.67542976 -9 29 C-8 28 -8 28 -5.71484375 27.90234375 C-4.34005859 27.91974609 -4.34005859 27.91974609 -2.9375 27.9375 C-2.01839844 27.94652344 -1.09929687 27.95554688 -0.15234375 27.96484375 C0.55792969 27.97644531 1.26820312 27.98804688 2 28 C2 24.75526442 1.33152702 23.28771535 0 20.375 C-2.94355595 13.21443482 -2.95682885 7.20727032 0 0 Z " fill="#252525" transform="translate(70,204)"/>
<path d="M0 0 C2.34775206 2.34775206 3.03543345 4.29000096 4.25 7.375 C6.49097048 12.90406109 9.03386759 18.2023255 11.765625 23.50390625 C13 26 13 26 14 29 C9.57798089 28.56808185 7.69305974 25.8300172 4.875 22.625 C3.57175781 21.15933594 3.57175781 21.15933594 2.2421875 19.6640625 C0 17 0 17 -2 14 C-4.50835821 12.9462741 -4.50835821 12.9462741 -7.375 12.125 C-11.90760852 10.58046761 -14.59277948 9.35592285 -17 5 C-17 4.34 -17 3.68 -17 3 C-14.52105044 4.10175536 -12.6754554 5.266293 -10.5625 7 C-8.08071863 8.93700009 -5.95836218 9.98570439 -3 11 C-2.67 10.34 -2.34 9.68 -2 9 C2.455 14.445 2.455 14.445 7 20 C6.4946875 18.80761719 5.989375 17.61523438 5.46875 16.38671875 C4.81222146 14.82042923 4.15598671 13.25401653 3.5 11.6875 C3.16613281 10.90181641 2.83226563 10.11613281 2.48828125 9.30664062 C2.17246094 8.54931641 1.85664062 7.79199219 1.53125 7.01171875 C1.09135742 5.96697388 1.09135742 5.96697388 0.64257812 4.90112305 C0 3 0 3 0 0 Z " fill="#767676" transform="translate(34,175)"/>
<path d="M0 0 C-0.66 0 -1.32 0 -2 0 C-2 0.66 -2 1.32 -2 2 C-24.86879001 10.8988362 -48.3252373 16.02853269 -73 12 C-73 11.67 -73 11.34 -73 11 C-72.14994385 10.98541748 -71.2998877 10.97083496 -70.42407227 10.95581055 C-36.52602852 10.53947858 -36.52602852 10.53947858 -4.67578125 -0.24609375 C-3 -1 -3 -1 0 0 Z " fill="#949494" transform="translate(215,252)"/>
<path d="M0 0 C0.07347656 0.94359375 0.07347656 0.94359375 0.1484375 1.90625 C0.63435199 7.46913314 1.50553626 12.61993052 3 18 C-2.11409932 15.72847698 -6.54305651 13.57208655 -10 9 C-9.91985673 5.55383944 -9.4443896 4.4443896 -7 2 C-2.55555556 0 -2.55555556 0 0 0 Z " fill="#F4F4F4" transform="translate(21,153)"/>
<path d="M0 0 C0 0.99 0 1.98 0 3 C-6.04211153 8.71424501 -14.31341865 11.31685794 -22 14 C-22.84175781 14.31066406 -23.68351562 14.62132812 -24.55078125 14.94140625 C-33.29432655 18.06733695 -41.80054561 18.13733912 -51 18.0625 C-52.06089844 18.05798828 -53.12179688 18.05347656 -54.21484375 18.04882812 C-56.80995598 18.03713843 -59.40494709 18.02075276 -62 18 C-62 17.67 -62 17.34 -62 17 C-60.75347656 16.97421875 -59.50695312 16.9484375 -58.22265625 16.921875 C-37.14473848 16.29893367 -17.80887349 11.81671135 0 0 Z " fill="#1C1C1C" transform="translate(207,204)"/>
<path d="M0 0 C2 1 2 1 3.21875 4.60546875 C3.65373396 6.13058122 4.08045515 7.65806833 4.5 9.1875 C4.92610211 10.70209931 5.35316897 12.21642757 5.78125 13.73046875 C5.98492187 14.45540527 6.18859375 15.1803418 6.3984375 15.92724609 C7.18730956 18.64539697 8.0782406 21.3243373 9 24 C4.62014385 22.21561416 1.33735392 19.18127036 -1.1328125 15.15234375 C-2.15469278 12.61605531 -2.26646005 10.66575265 -2.25 7.9375 C-2.25515625 7.08027344 -2.2603125 6.22304687 -2.265625 5.33984375 C-2 3 -2 3 0 0 Z " fill="#121212" transform="translate(86,222)"/>
<path d="M0 0 C0 0.99 0 1.98 0 3 C-8.33225314 9.85395016 -23.23118242 17.05892908 -34.08984375 16.9765625 C-35.02957031 16.86054688 -35.96929687 16.74453125 -36.9375 16.625 C-37.89527344 16.51414063 -38.85304687 16.40328125 -39.83984375 16.2890625 C-40.55269531 16.19367188 -41.26554688 16.09828125 -42 16 C-42 15.67 -42 15.34 -42 15 C-40.7625 14.88785156 -40.7625 14.88785156 -39.5 14.7734375 C-24.8310386 13.10353341 -12.39542941 7.93495292 0 0 Z " fill="#262626" transform="translate(203,200)"/>
<path d="M0 0 C0.33 0 0.66 0 1 0 C2.04612514 6.62545923 1.87169357 11.62628376 0.0625 18.0625 C-0.15841309 18.87452881 -0.37932617 19.68655762 -0.60693359 20.52319336 C-3.01362237 28.84774346 -6.54807301 41.03204867 -14 46 C-13.37827412 43.19757641 -12.52032857 40.78213207 -11.2578125 38.20703125 C-10.91508301 37.49925537 -10.57235352 36.79147949 -10.21923828 36.06225586 C-9.85813965 35.31983643 -9.49704102 34.57741699 -9.125 33.8125 C-3.71298414 22.41142552 -1.30559491 12.51835118 0 0 Z " fill="#313131" transform="translate(244,137)"/>
<path d="M0 0 C0.33 0 0.66 0 1 0 C4.03536687 15.59757826 -2.62926792 29.59673792 -10 43 C-10.66 43 -11.32 43 -12 43 C-11.21729852 39.12514453 -9.63931118 35.67490117 -8.0625 32.0625 C-3.31287263 21.15119388 -0.75339277 11.89567527 0 0 Z " fill="#3F3F3F" transform="translate(238,134)"/>
<path d="M0 0 C0.66 0.33 1.32 0.66 2 1 C1.73445313 2.21171875 1.46890625 3.4234375 1.1953125 4.671875 C-1.37567532 16.74919962 -3.00520357 28.69593886 -4 41 C-4.33 41 -4.66 41 -5 41 C-5.39659058 26.92408504 -5.65951173 13.18912299 0 0 Z " fill="#393939" transform="translate(75,97)"/>
<path d="M0 0 C4.914898 2.8646834 7.32719261 5.48289756 10.25 10.5 C10.91515625 11.6240625 11.5803125 12.748125 12.265625 13.90625 C16.1310451 20.80132369 17.82690615 27.17937435 19 35 C16.28806345 32.28806345 15.25040358 29.05089568 13.8125 25.5625 C10.49377974 17.73200947 6.56430487 10.54530622 1.296875 3.828125 C0 2 0 2 0 0 Z " fill="#7E7E7E" transform="translate(262,54)"/>
<path d="M0 0 C-1.01835937 0.268125 -2.03671875 0.53625 -3.0859375 0.8125 C-12.21821478 3.31153902 -20.73382493 6.41189662 -29.28466797 10.49609375 C-31.16615892 11.38269105 -33.08076567 12.19837505 -35 13 C-35.66 12.67 -36.32 12.34 -37 12 C-30.31661269 4.05742378 -9.9696398 -3.56235268 0 0 Z " fill="#7C7C7C" transform="translate(131,6)"/>
<path d="M0 0 C0.99 0 1.98 0 3 0 C5.88654107 3.13754465 10 8.71239004 10 13 C10.66 13 11.32 13 12 13 C12 13.66 12 14.32 12 15 C12.66 15 13.32 15 14 15 C14.33 16.32 14.66 17.64 15 19 C11.37 17.02 7.74 15.04 4 13 C4.66 12.34 5.32 11.68 6 11 C5.34 10.21625 4.68 9.4325 4 8.625 C2 6 2 6 2 4 C1.34 4 0.68 4 0 4 C0 2.68 0 1.36 0 0 Z " fill="#767676" transform="translate(49,206)"/>
<path d="M0 0 C-2.98357944 7.87879361 -14.08552376 13.27683763 -21.0625 17.3203125 C-23.42708442 18.14982397 -24.67168818 17.82114569 -27 17 C-26.03320312 16.443125 -25.06640625 15.88625 -24.0703125 15.3125 C-16.89262864 11.12297836 -10.1836505 6.87137807 -3.85546875 1.43359375 C-2 0 -2 0 0 0 Z " fill="#949494" transform="translate(244,232)"/>
<path d="M0 0 C8.39298351 3.62939827 16.2814996 13.35658122 21 21 C20.67 21.99 20.34 22.98 20 24 C16.66879416 20.77625241 13.50437444 17.42036032 10.375 14 C9.61960938 13.175 8.86421875 12.35 8.0859375 11.5 C6.08532063 9.10225694 4.54558459 6.70590615 3 4 C2.01755155 2.65368175 1.02323436 1.31558703 0 0 Z " fill="#CFCFCF" transform="translate(245,34)"/>
<path d="M0 0 C0 3.16053747 -0.49899419 4.38811487 -1.86328125 7.16796875 C-2.45206055 8.38516602 -2.45206055 8.38516602 -3.05273438 9.62695312 C-3.46845703 10.47193359 -3.88417969 11.31691406 -4.3125 12.1875 C-7.18033465 18.04666457 -9.8088136 23.85191389 -12 30 C-14.13084528 23.60746417 -10.18669827 15.6082639 -7.5 9.703125 C-3.65548365 2.4369891 -3.65548365 2.4369891 0 0 Z " fill="#878787" transform="translate(46,64)"/>
<path d="M0 0 C1.30339523 3.91018568 0.34282308 5.10550887 -1.3125 8.8125 C-2.6686289 11.87836161 -3.95569689 14.86251971 -4.984375 18.0546875 C-6.02245887 21.06513073 -7.3085322 23.58097385 -8.9375 26.3125 C-9.44152344 27.17488281 -9.94554687 28.03726563 -10.46484375 28.92578125 C-12 31 -12 31 -15 32 C-13.65334113 28.43869361 -12.06107197 25.18711931 -10.1875 21.875 C-6.27767847 14.80099528 -2.96353458 7.51660134 0 0 Z " fill="#737373" transform="translate(281,175)"/>
<path d="M0 0 C4.75 1.875 4.75 1.875 7 3 C6.67 3.99 6.34 4.98 6 6 C5.34 6 4.68 6 4 6 C3.34 7.32 2.68 8.64 2 10 C1.67 9.01 1.34 8.02 1 7 C0.01 7 -0.98 7 -2 7 C-2.33 7.99 -2.66 8.98 -3 10 C-2.67 10.66 -2.34 11.32 -2 12 C-4.475 11.01 -4.475 11.01 -7 10 C-6.57847656 9.44570313 -6.15695313 8.89140625 -5.72265625 8.3203125 C-5.17480469 7.59585938 -4.62695312 6.87140625 -4.0625 6.125 C-3.51722656 5.40570313 -2.97195312 4.68640625 -2.41015625 3.9453125 C-0.96035376 2.05642921 -0.96035376 2.05642921 0 0 Z " fill="#8C8C8C" transform="translate(219,33)"/>
<path d="M0 0 C1.07354736 0.01571045 2.14709473 0.0314209 3.25317383 0.04760742 C4.41655273 0.05727539 5.57993164 0.06694336 6.77856445 0.0769043 C7.99350586 0.10204102 9.20844727 0.12717773 10.46020508 0.15307617 C11.68674805 0.16661133 12.91329102 0.18014648 14.17700195 0.1940918 C17.20934172 0.22948876 20.24080504 0.27886857 23.27270508 0.34057617 C22.94270508 1.33057617 22.61270508 2.32057617 22.27270508 3.34057617 C13.03270508 3.34057617 3.79270508 3.34057617 -5.72729492 3.34057617 C-2.72729492 0.34057617 -2.72729492 0.34057617 0 0 Z " fill="#010101" transform="translate(143.727294921875,39.659423828125)"/>
<path d="M0 0 C5.21333164 7.81999746 4.24494498 17.54356013 4.125 26.5625 C4.11597656 27.85736328 4.10695312 29.15222656 4.09765625 30.48632812 C4.07425094 33.65774771 4.04146228 36.82877373 4 40 C3.67 40 3.34 40 3 40 C2.9498877 39.16863525 2.89977539 38.33727051 2.84814453 37.48071289 C2.65627147 34.35483532 2.45792006 31.22945062 2.25537109 28.10424805 C2.12758659 26.1030087 2.00707723 24.10130906 1.88671875 22.09960938 C1.52201046 16.53079428 1.16391547 11.12222342 -0.1328125 5.68359375 C-1 2 -1 2 0 0 Z " fill="#242424" transform="translate(236,100)"/>
<path d="M0 0 C0.38063221 2.3260857 0.71269945 4.66055264 1 7 C0 8 0 8 -2.5625 8.0625 C-3.366875 8.041875 -4.17125 8.02125 -5 8 C-5.33 6.68 -5.66 5.36 -6 4 C-7.98 4.66 -9.96 5.32 -12 6 C-12 5.01 -12 4.02 -12 3 C-10.37604003 2.49663233 -8.75079459 1.99741024 -7.125 1.5 C-6.22007812 1.2215625 -5.31515625 0.943125 -4.3828125 0.65625 C-2 0 -2 0 0 0 Z " fill="#7E7E7E" transform="translate(268,94)"/>
<path d="M0 0 C3.35135629 3.73151014 4.55844216 8.00607187 6.0625 12.6875 C6.31837891 13.45255859 6.57425781 14.21761719 6.83789062 15.00585938 C9.47504526 23.05290963 11.30902119 30.50191723 11 39 C10.67 39 10.34 39 10 39 C8.33333333 30.66666667 6.66666667 22.33333333 5 14 C4.34 14 3.68 14 3 14 C0.88838269 4.58997722 0.88838269 4.58997722 0 0 Z " fill="#F8F8F8" transform="translate(278,78)"/>
<path d="M0 0 C7.41639344 0.89508197 7.41639344 0.89508197 10.78125 1.5 C13.82814923 1.97330473 16.75695262 2.20053047 19.8359375 2.31640625 C20.89941406 2.35830078 21.96289062 2.40019531 23.05859375 2.44335938 C24.15300781 2.48267578 25.24742187 2.52199219 26.375 2.5625 C28.05142578 2.62727539 28.05142578 2.62727539 29.76171875 2.69335938 C32.50770199 2.79897411 35.25376881 2.9010797 38 3 C38 3.33 38 3.66 38 4 C34.08473877 4.25935199 30.16815282 4.47672734 26.25 4.6875 C24.61224609 4.79674805 24.61224609 4.79674805 22.94140625 4.90820312 C15.29099386 5.29298718 8.22087579 4.75977436 1 2 C0.67 1.34 0.34 0.68 0 0 Z " fill="#505050" transform="translate(127,217)"/>
<path d="M0 0 C0.33 0 0.66 0 1 0 C1 2.64 1 5.28 1 8 C-1.375 8.625 -1.375 8.625 -4 9 C-4.66 8.34 -5.32 7.68 -6 7 C-6 6.01 -6 5.02 -6 4 C-7.65 4 -9.3 4 -11 4 C-11 3.34 -11 2.68 -11 2 C-10.28972656 1.93941406 -9.57945312 1.87882812 -8.84765625 1.81640625 C-7.46900391 1.69072266 -7.46900391 1.69072266 -6.0625 1.5625 C-5.14597656 1.48128906 -4.22945313 1.40007812 -3.28515625 1.31640625 C-1.03840268 1.23955024 -1.03840268 1.23955024 0 0 Z " fill="#484848" transform="translate(271,112)"/>
<path d="M0 0 C3.96 0 7.92 0 12 0 C12.33 0.66 12.66 1.32 13 2 C11.42274653 2.70133599 9.83788667 3.385583 8.25 4.0625 C7.36828125 4.44535156 6.4865625 4.82820312 5.578125 5.22265625 C2.84743691 6.04600008 1.63098653 5.9773992 -1 5 C-0.67 3.35 -0.34 1.7 0 0 Z " fill="#0E0E0E" transform="translate(62,232)"/>
<path d="M0 0 C0.66 0 1.32 0 2 0 C2.07347656 0.94359375 2.07347656 0.94359375 2.1484375 1.90625 C2.63435199 7.46913314 3.50553626 12.61993052 5 18 C-0.19644801 15.69190026 -4.26251886 13.43825885 -8 9 C-8 8.34 -8 7.68 -8 7 C-7.34 7 -6.68 7 -6 7 C-5.071875 8.175625 -5.071875 8.175625 -4.125 9.375 C-2.11147826 11.86229156 -0.91357141 12.85538266 2 14 C1.5504955 12.68445015 1.09010284 11.37261642 0.625 10.0625 C0.36976562 9.33160156 0.11453125 8.60070312 -0.1484375 7.84765625 C-0.85271413 5.81317884 -0.85271413 5.81317884 -3 5 C-3 4.34 -3 3.68 -3 3 C-2.01 3 -1.02 3 0 3 C0 2.01 0 1.02 0 0 Z " fill="#535353" transform="translate(19,153)"/>
<path d="M0 0 C0.66 0.99 1.32 1.98 2 3 C1.44828125 3.62261719 0.8965625 4.24523437 0.328125 4.88671875 C-2.71456244 8.95554742 -4.93529807 13.30084987 -7.25 17.8125 C-7.70890625 18.69615234 -8.1678125 19.57980469 -8.640625 20.49023438 C-9.76534639 22.65766621 -10.88495706 24.82757776 -12 27 C-13.14794559 23.56837542 -13.0486359 23.10881668 -11.453125 19.5390625 C-10.7309996 18.22755534 -9.99610366 16.92301596 -9.25 15.625 C-8.52539269 14.3258826 -7.80142595 13.02640769 -7.078125 11.7265625 C-6.72427734 11.10040039 -6.37042969 10.47423828 -6.00585938 9.82910156 C-5.0714451 8.1299191 -4.21194848 6.39012333 -3.359375 4.6484375 C-2 2 -2 2 0 0 Z " fill="#2C2C2C" transform="translate(89,71)"/>
<path d="M0 0 C8.760252 1.76033433 18.53286068 3.81871966 26 9 C26.33 9.99 26.66 10.98 27 12 C22.69737455 10.6497767 18.6954546 8.99916908 14.625 7.0625 C9.80735385 4.80543554 5.01503183 2.77001124 0 1 C0 0.67 0 0.34 0 0 Z " fill="#777777" transform="translate(196,8)"/>
<path d="M0 0 C0.33 0 0.66 0 1 0 C1.16435547 1.41539062 1.16435547 1.41539062 1.33203125 2.859375 C2.25782392 10.3560376 3.45171946 17.43965509 5.609375 24.70703125 C5.73828125 25.46371094 5.8671875 26.22039062 6 27 C5.34 27.66 4.68 28.32 4 29 C-1.83515988 8.15626612 -1.83515988 8.15626612 0 0 Z " fill="#3A3A3A" transform="translate(66,137)"/>
<path d="M0 0 C0.33 0 0.66 0 1 0 C0.85833643 1.91697937 0.71150416 3.83357723 0.5625 5.75 C0.48128906 6.81734375 0.40007812 7.8846875 0.31640625 8.984375 C0 12 0 12 -0.5 13.86328125 C-1.07917955 16.33836884 -1.21304716 18.66344462 -1.31640625 21.203125 C-1.35830078 22.1828125 -1.40019531 23.1625 -1.44335938 24.171875 C-1.48267578 25.18765625 -1.52199219 26.2034375 -1.5625 27.25 C-1.60568359 28.28125 -1.64886719 29.3125 -1.69335938 30.375 C-1.79925682 32.9165387 -1.90133443 35.45817196 -2 38 C-2.33 38 -2.66 38 -3 38 C-3.08824695 33.72930036 -3.14080654 29.45884011 -3.1875 25.1875 C-3.21263672 23.99189453 -3.23777344 22.79628906 -3.26367188 21.56445312 C-3.32645278 13.88425547 -2.47934068 7.27962748 0 0 Z " fill="#151515" transform="translate(68,105)"/>
<path d="M0 0 C0.99 0.33 1.98 0.66 3 1 C2.61328125 1.57105469 2.2265625 2.14210938 1.828125 2.73046875 C-2.52323751 9.5052386 -4.93287932 16.24221769 -7 24 C-9 21 -9 21 -8.75 18.90625 C-6.63168125 12.10997734 -3.60160077 6.13088027 0 0 Z " fill="#2E2E2E" transform="translate(77,84)"/>
<path d="M0 0 C4.37257704 4.37257704 4.13174472 10.83926461 4.1953125 16.6875 C4.18213641 19.12507707 4.15845932 21.56261697 4.125 24 C4.11597656 25.25167969 4.10695312 26.50335938 4.09765625 27.79296875 C4.07422716 30.8621801 4.04142147 33.93098756 4 37 C3.67 37 3.34 37 3 37 C2.98018066 36.39115967 2.96036133 35.78231934 2.93994141 35.1550293 C2.59263075 20.4894583 2.59263075 20.4894583 0.40234375 6.0234375 C0 4 0 4 0 0 Z " fill="#151515" transform="translate(242,106)"/>
<path d="M0 0 C0 4.03330767 -1.44378947 4.86753739 -4.1875 7.75 C-7.82672703 11.6647521 -11.01597201 15.5720875 -14 20 C-15 18 -15 18 -14.4375 15.8125 C-11.09255825 9.26804875 -5.64772726 4.56162586 0 0 Z " fill="#6F6F6F" transform="translate(63,42)"/>
<path d="M0 0 C0.33 0.99 0.66 1.98 1 3 C-0.4765625 5.33984375 -0.4765625 5.33984375 -2.625 7.9375 C-3.31851562 8.79214844 -4.01203125 9.64679688 -4.7265625 10.52734375 C-7.01577281 13.01715497 -9.18989445 15.11295501 -12 17 C-12.99 16.67 -13.98 16.34 -15 16 C-14.16855469 15.18015625 -13.33710938 14.3603125 -12.48046875 13.515625 C-11.38267895 12.42721802 -10.28503011 11.33866885 -9.1875 10.25 C-8.64029297 9.71117187 -8.09308594 9.17234375 -7.52929688 8.6171875 C-4.77802637 5.88259137 -2.21577882 3.20316096 0 0 Z " fill="#8D8D8D" transform="translate(260,214)"/>
<path d="M0 0 C0.66 1.32 1.32 2.64 2 4 C-1.75 7 -1.75 7 -4 7 C-5.44074715 8.782129 -6.80510649 10.62660276 -8.125 12.5 C-8.84945312 13.5209375 -9.57390625 14.541875 -10.3203125 15.59375 C-10.87460938 16.3878125 -11.42890625 17.181875 -12 18 C-12.66 17.67 -13.32 17.34 -14 17 C-9.70351846 10.87151618 -5.50510597 5.09222302 0 0 Z " fill="#171717" transform="translate(92,66)"/>
<path d="M0 0 C0.99 0.33 1.98 0.66 3 1 C2.34 1 1.68 1 1 1 C1 1.66 1 2.32 1 3 C-1.51574308 4.01475351 -4.03634103 5.01179332 -6.5625 6 C-7.61920898 6.42925781 -7.61920898 6.42925781 -8.69726562 6.8671875 C-13.36471116 8.67394061 -16.99732473 9.31554325 -22 9 C-18.11872986 6.89679864 -14.00806419 5.45690016 -9.875 3.9375 C-4.86147196 2.14877819 -4.86147196 2.14877819 0 0 Z " fill="#666666" transform="translate(212,251)"/>
<path d="M0 0 C0 3 0 3 -0.9921875 4.734375 C-2.42336111 7.95174203 -2.18981614 10.74992838 -2.125 14.25 C-2.10695312 15.51328125 -2.08890625 16.7765625 -2.0703125 18.078125 C-2.04710937 19.04234375 -2.02390625 20.0065625 -2 21 C-4 20 -4 20 -4.6015625 18.27734375 C-6.49618136 7.44829676 -6.49618136 7.44829676 -3.8828125 3.171875 C-2.5 1.8125 -2.5 1.8125 0 0 Z " fill="#181818" transform="translate(54,184)"/>
<path d="M0 0 C3.68069887 1.53643852 5.98775204 3.78150945 8.75 6.625 C9.54921875 7.44226563 10.3484375 8.25953125 11.171875 9.1015625 C12.07679688 10.04128906 12.07679688 10.04128906 13 11 C12.34 11.66 11.68 12.32 11 13 C10.401875 12.175 9.80375 11.35 9.1875 10.5 C8.465625 9.675 7.74375 8.85 7 8 C6.01 8 5.02 8 4 8 C2.3125 6.625 2.3125 6.625 1 5 C1 4.34 1 3.68 1 3 C0.34 3 -0.32 3 -1 3 C-0.67 2.01 -0.34 1.02 0 0 Z " fill="#181818" transform="translate(214,63)"/>
<path d="M0 0 C0 0.66 0 1.32 0 2 C-6.97200851 5.04702594 -12.52994747 5.15890535 -20 4 C-20 3.67 -20 3.34 -20 3 C-18.51886719 2.80083984 -18.51886719 2.80083984 -17.0078125 2.59765625 C-15.72648438 2.42105469 -14.44515625 2.24445313 -13.125 2.0625 C-11.21074219 1.80146484 -11.21074219 1.80146484 -9.2578125 1.53515625 C-5.59049977 0.93273198 -3.82369608 0 0 0 Z " fill="#414141" transform="translate(181,212)"/>
<path d="M0 0 C0 4.12433369 -1.93616488 6.97789467 -3.875 10.5 C-4.23980469 11.17675781 -4.60460937 11.85351562 -4.98046875 12.55078125 C-6.55405565 15.45190328 -8.16826988 18.25240482 -10 21 C-10.66 21 -11.32 21 -12 21 C-10.57298364 15.92356475 -8.32425022 12.02446597 -5.4375 7.6875 C-5.02564453 7.05521484 -4.61378906 6.42292969 -4.18945312 5.77148438 C-1.18752426 1.18752426 -1.18752426 1.18752426 0 0 Z " fill="#C4C4C4" transform="translate(85,76)"/>
<path d="M0 0 C1.65 0 3.3 0 5 0 C3.46920333 3.44429252 1.38345294 6.09516673 -1 9 C-1.99 10.485 -1.99 10.485 -3 12 C-3.66 10.68 -4.32 9.36 -5 8 C-4.01 7.67 -3.02 7.34 -2 7 C-2.33 5.68 -2.66 4.36 -3 3 C-4.65 3 -6.3 3 -8 3 C-8 2.34 -8 1.68 -8 1 C-5.69 1 -3.38 1 -1 1 C-1 1.99 -1 2.98 -1 4 C-0.01 3.01 0.98 2.02 2 1 C1.34 0.67 0.68 0.34 0 0 Z " fill="#4C4C4C" transform="translate(255,76)"/>
<path d="M0 0 C0 0.33 0 0.66 0 1 C-1.65 1 -3.3 1 -5 1 C-5 1.66 -5 2.32 -5 3 C-11.6512513 3.89536075 -18.30992818 4.47594437 -25 5 C-21.52179367 2.68119578 -18.8416981 2.18192851 -14.75 1.375 C-13.46609375 1.11460938 -12.1821875 0.85421875 -10.859375 0.5859375 C-7.16832367 0.02555521 -3.72587543 -0.1061778 0 0 Z " fill="#CACACA" transform="translate(144,2)"/>
<path d="M0 0 C7.05831135 0.63020637 13.04927183 2.03284789 19 6 C14.96733429 7.63889124 12.27157007 6.24876679 8.375 4.6875 C7.22773437 4.23761719 6.08046875 3.78773438 4.8984375 3.32421875 C2 2 2 2 0 0 Z " fill="#353535" transform="translate(117,208)"/>
<path d="M0 0 C0.33 0 0.66 0 1 0 C0.67422369 7.16707877 -2.65443628 12.76927124 -6 19 C-6.66 19 -7.32 19 -8 19 C-7.38516675 16.266235 -6.57072617 13.85825882 -5.37109375 11.328125 C-4.90219727 10.33232422 -4.90219727 10.33232422 -4.42382812 9.31640625 C-4.09833984 8.63449219 -3.77285156 7.95257813 -3.4375 7.25 C-2.9434668 6.20392578 -2.9434668 6.20392578 -2.43945312 5.13671875 C-1.62952288 3.4229533 -0.81519362 1.71126806 0 0 Z " fill="#393939" transform="translate(234,158)"/>
<path d="M0 0 C0.33 0 0.66 0 1 0 C1 1.65 1 3.3 1 5 C1.721875 5.061875 2.44375 5.12375 3.1875 5.1875 C6.84657625 6.24456647 8.49211602 8.20550071 11 11 C7.12867972 10.42647107 4.91827204 8.51295648 2 6 C2.66 7.98 3.32 9.96 4 12 C2.35 12 0.7 12 -1 12 C-0.67 8.04 -0.34 4.08 0 0 Z " fill="#404040" transform="translate(146,17)"/>
<path d="M0 0 C6.75 -0.125 6.75 -0.125 9 1 C8.67 2.65 8.34 4.3 8 6 C6.35 6 4.7 6 3 6 C2 4 1 2 0 0 Z " fill="#555555" transform="translate(144,16)"/>
<path d="M0 0 C0.33 0.66 0.66 1.32 1 2 C-3.29 2.99 -7.58 3.98 -12 5 C-12.33 4.01 -12.66 3.02 -13 2 C-11.39935157 1.46845258 -9.79431126 0.95011647 -8.1875 0.4375 C-7.29417969 0.14746094 -6.40085938 -0.14257812 -5.48046875 -0.44140625 C-3 -1 -3 -1 0 0 Z " fill="#252525" transform="translate(139,42)"/>
<path d="M0 0 C1 3 1 3 -0.109375 5.84765625 C-0.65078125 6.90855469 -1.1921875 7.96945313 -1.75 9.0625 C-2.28109375 10.12597656 -2.8121875 11.18945312 -3.359375 12.28515625 C-5 15 -5 15 -8 17 C-7.30150228 13.0254496 -5.37107231 9.73425902 -3.4375 6.25 C-3.10814453 5.64800781 -2.77878906 5.04601562 -2.43945312 4.42578125 C-1.6303535 2.94829497 -0.81572338 1.47383964 0 0 Z " fill="#2D2D2D" transform="translate(238,166)"/>
<path d="M0 0 C0.66 0.33 1.32 0.66 2 1 C-1.38168431 4.68006822 -4.42521756 6.9785845 -9 9 C-9.66 8.34 -10.32 7.68 -11 7 C-9.21475351 5.80286983 -7.4215972 4.61752721 -5.625 3.4375 C-4.62726563 2.77621094 -3.62953125 2.11492188 -2.6015625 1.43359375 C-1.74304688 0.96050781 -0.88453125 0.48742187 0 0 Z " fill="#9A9A9A" transform="translate(93,17)"/>
<path d="M0 0 C6.00477279 0.64916463 11.400781 2.85795003 17 5 C15.38671875 6.140625 15.38671875 6.140625 13 7 C10.01953125 6.171875 10.01953125 6.171875 6.8125 4.75 C5.74644531 4.29109375 4.68039063 3.8321875 3.58203125 3.359375 C1 2 1 2 0 0 Z " fill="#2E2E2E" transform="translate(112,211)"/>
<path d="M0 0 C7.75 0.875 7.75 0.875 10 2 C10 2.99 10 3.98 10 5 C6.7 4.34 3.4 3.68 0 3 C0 2.01 0 1.02 0 0 Z " fill="#2A2A2A" transform="translate(167,40)"/>
<path d="M0 0 C3.04344294 4.5651644 6.20803868 9.45152616 5.75 15.0625 C5.5025 15.701875 5.255 16.34125 5 17 C2.14362701 11.72669601 -0.57228292 6.10435119 0 0 Z " fill="#3C3C3C" transform="translate(237,91)"/>
<path d="M0 0 C0.99 0.33 1.98 0.66 3 1 C2.67 2.32 2.34 3.64 2 5 C3.65 4.67 5.3 4.34 7 4 C7 4.66 7 5.32 7 6 C5.68 6 4.36 6 3 6 C3.57344937 8.86724686 3.8614515 9.8614515 6 12 C4.35 12.33 2.7 12.66 1 13 C0.93941406 12.38511719 0.87882812 11.77023438 0.81640625 11.13671875 C0.73261719 10.32847656 0.64882812 9.52023438 0.5625 8.6875 C0.48128906 7.88699219 0.40007812 7.08648437 0.31640625 6.26171875 C0.04734307 3.83912821 0.04734307 3.83912821 -1 1 C-0.67 0.67 -0.34 0.34 0 0 Z " fill="#464646" transform="translate(127,20)"/>
<path d="M0 0 C2.6465744 1.3232872 2.87475516 2.25721571 4 5 C5.3457718 9.60705822 6.28799158 14.25327721 7 19 C2.20320736 14.20320736 0.57302271 6.58976117 0 0 Z " fill="#767676" transform="translate(274,70)"/>
<path d="M0 0 C-3.63485777 2.27178611 -7.74300438 3.09977333 -12 3 C-14.25 2.015625 -14.25 2.015625 -16 1 C-5.62642369 -1.48063781 -5.62642369 -1.48063781 0 0 Z " fill="#464646" transform="translate(184,218)"/>
<path d="M0 0 C3.40414403 1.13471468 4.24276648 2.17225987 6.5 4.875 C8.58578225 7.35415347 10.67301287 9.7439576 13 12 C8.41061359 12 6.19220473 9.07900598 3 6 C0 2.51612903 0 2.51612903 0 0 Z " fill="#1F1F1F" transform="translate(87,190)"/>
<path d="M0 0 C6.52403283 1.35404455 6.52403283 1.35404455 8.75 4.375 C9.36875 5.674375 9.36875 5.674375 10 7 C10.98244845 8.34631825 11.97676564 9.68441297 13 11 C9.54691313 9.48729451 7.04375621 7.45279358 4.25 4.9375 C3.45078125 4.22464844 2.6515625 3.51179688 1.828125 2.77734375 C1.22484375 2.19082031 0.6215625 1.60429687 0 1 C0 0.67 0 0.34 0 0 Z " fill="#6B6B6B" transform="translate(238,30)"/>
<path d="M0 0 C2.6875 0.875 2.6875 0.875 5 2 C5 2.66 5 3.32 5 4 C5.66 4 6.32 4 7 4 C7.33 5.32 7.66 6.64 8 8 C4.37 6.02 0.74 4.04 -3 2 C-2.01 1.34 -1.02 0.68 0 0 Z " fill="#B4B4B4" transform="translate(56,217)"/>
<path d="M0 0 C2.47186455 2.96346786 3.66248361 5.54041689 4.6875 9.25 C4.93886719 10.14203125 5.19023437 11.0340625 5.44921875 11.953125 C5.72185547 12.96632813 5.72185547 12.96632813 6 14 C5.01 14 4.02 14 3 14 C0.88838269 4.58997722 0.88838269 4.58997722 0 0 Z " fill="#D6D6D6" transform="translate(278,78)"/>
<path d="M0 0 C3.26008643 3.16952847 6.22237877 6.39937989 9 10 C8.01 10 7.02 10 6 10 C4.39453125 8.3203125 4.39453125 8.3203125 2.8125 6.125 C2.01779297 5.04605469 2.01779297 5.04605469 1.20703125 3.9453125 C0 2 0 2 0 0 Z " fill="#1C1C1C" transform="translate(87,180)"/>
<path d="M0 0 C4.38259368 1.33912585 6.54093925 3.12225036 9 7 C8.67 7.99 8.34 8.98 8 10 C6.33333333 8.33333333 4.66666667 6.66666667 3 5 C2.401875 4.443125 1.80375 3.88625 1.1875 3.3125 C0 2 0 2 0 0 Z " fill="#ABABAB" transform="translate(257,48)"/>
<path d="M0 0 C1.95766281 -0.08082094 3.91626728 -0.13910778 5.875 -0.1875 C7.51082031 -0.23970703 7.51082031 -0.23970703 9.1796875 -0.29296875 C10.11039063 -0.19628906 11.04109375 -0.09960938 12 0 C12.66 0.99 13.32 1.98 14 3 C4.58997722 2.03644647 4.58997722 2.03644647 0 1 C0 0.67 0 0.34 0 0 Z " fill="#636363" transform="translate(74,241)"/>
<path d="M0 0 C4.04256383 1.22217046 7.49288959 2.62754296 11 5 C11 5.33 11 5.66 11 6 C8.3125 6.375 8.3125 6.375 5 6 C2.93601924 4.176017 1.60958947 2.27236161 0 0 Z " fill="#F1F1F1" transform="translate(58,225)"/>
<path d="M0 0 C0.28875 0.61875 0.5775 1.2375 0.875 1.875 C1.93720042 4.13325765 1.93720042 4.13325765 4 6 C3.34 6.66 2.68 7.32 2 8 C-0.0625 7.8125 -0.0625 7.8125 -2 7 C-2.33 6.01 -2.66 5.02 -3 4 C-2.34 4 -1.68 4 -1 4 C-0.67 2.68 -0.34 1.36 0 0 Z " fill="#C5C5C5" transform="translate(49,200)"/>
<path d="M0 0 C-1.38009621 3.33523252 -2.84950652 5.18607951 -6 7 C-6.99 6.67 -7.98 6.34 -9 6 C-7.8803014 4.99406757 -6.7540588 3.9954151 -5.625 3 C-4.68527344 2.1646875 -4.68527344 2.1646875 -3.7265625 1.3125 C-2 0 -2 0 0 0 Z " fill="#757575" transform="translate(244,232)"/>
<path d="M0 0 C0.99 0.33 1.98 0.66 3 1 C-1.5 5.875 -1.5 5.875 -6 7 C-4.02 4.69 -2.04 2.38 0 0 Z " fill="#A5A5A5" transform="translate(251,224)"/>
<path d="M0 0 C1.26706235 3.80118706 0.57172296 5.3850372 -1 9 C-1.99 9.33 -2.98 9.66 -4 10 C-3.43454163 6.04179141 -2.19097652 3.3340947 0 0 Z " fill="#EAEAEA" transform="translate(74,96)"/>
<path d="M0 0 C2 0.75 2 0.75 4 3.75 C3.01 4.08 2.02 4.41 1 4.75 C-1.6875 2.8125 -1.6875 2.8125 -4 0.75 C-2 -0.25 -2 -0.25 0 0 Z " fill="#B7B7B7" transform="translate(90,243.25)"/>
<path d="M0 0 C3 1 3 1 4.75 3.4375 C5.36875 4.7059375 5.36875 4.7059375 6 6 C5.67 6.66 5.34 7.32 5 8 C2.5 6.25 2.5 6.25 0 4 C0 2.68 0 1.36 0 0 Z " fill="#6A6A6A" transform="translate(53,211)"/>
<path d="M0 0 C2 4 2 4 1.5390625 6.140625 C1.23742187 6.83671875 0.93578125 7.5328125 0.625 8.25 C0.32851562 8.95640625 0.03203125 9.6628125 -0.2734375 10.390625 C-0.51320312 10.92171875 -0.75296875 11.4528125 -1 12 C-1.66 11.67 -2.32 11.34 -3 11 C-2.01 7.37 -1.02 3.74 0 0 Z " fill="#393939" transform="translate(241,155)"/>
<path d="M0 0 C2.31 1.98 4.62 3.96 7 6 C3.30581799 6 1.22163822 4.71820705 -2 3 C-1.34 2.67 -0.68 2.34 0 2 C0 1.34 0 0.68 0 0 Z " fill="#282828" transform="translate(64,224)"/>
<path d="M0 0 C5.75 3.625 5.75 3.625 8 7 C5 7 5 7 2.3125 4.625 C0 2 0 2 0 0 Z " fill="#323232" transform="translate(95,190)"/>
<path d="M0 0 C2.79872437 2.52788007 4.45773019 4.20411134 5 8 C4.01 8 3.02 8 2 8 C0.74335022 5.09399739 0 3.20395416 0 0 Z " fill="#DADADA" transform="translate(232,87)"/>
<path d="M0 0 C0.8125 1.6875 0.8125 1.6875 1 4 C-1.4375 6.75 -1.4375 6.75 -4 9 C-2.25 2.25 -2.25 2.25 0 0 Z " fill="#848484" transform="translate(52,53)"/>
<path d="M0 0 C0 0.66 0 1.32 0 2 C-3.3 1.67 -6.6 1.34 -10 1 C-6.1496895 -1.56687367 -4.41430237 -0.83288724 0 0 Z " fill="#363636" transform="translate(145,220)"/>
<path d="M0 0 C1.65 0 3.3 0 5 0 C4.67 1.32 4.34 2.64 4 4 C2.68 3.67 1.36 3.34 0 3 C0 2.01 0 1.02 0 0 Z " fill="#F8F8F8" transform="translate(266,115)"/>
<path d="M0 0 C1.125 1.5625 1.125 1.5625 2 4 C1.125 7.75 1.125 7.75 0 11 C-2 8 -2 8 -1.7578125 5.95703125 C-1.171875 3.97135417 -0.5859375 1.98567708 0 0 Z " fill="#454545" transform="translate(70,97)"/>
<path d="M0 0 C1.45823212 -0.0270043 2.91660675 -0.04639787 4.375 -0.0625 C5.18710938 -0.07410156 5.99921875 -0.08570312 6.8359375 -0.09765625 C9 0 9 0 11 1 C10.67 1.99 10.34 2.98 10 4 C9.34 4 8.68 4 8 4 C8 3.01 8 2.02 8 1 C5.36 1.33 2.72 1.66 0 2 C0 1.34 0 0.68 0 0 Z " fill="#CECECE" transform="translate(246,76)"/>
<path d="M0 0 C6.75 0.75 6.75 0.75 9 3 C6 4 6 4 2.8125 2.5625 C1.884375 2.046875 0.95625 1.53125 0 1 C0 0.67 0 0.34 0 0 Z " fill="#292929" transform="translate(189,48)"/>
<path d="M0 0 C1.32 0.33 2.64 0.66 4 1 C1.03 3.475 1.03 3.475 -2 6 C-2.66 5.67 -3.32 5.34 -4 5 C-2.68 3.35 -1.36 1.7 0 0 Z " fill="#737373" transform="translate(80,25)"/>
<path d="M0 0 C1.32 0.33 2.64 0.66 4 1 C3.67 2.32 3.34 3.64 3 5 C2.01 5 1.02 5 0 5 C0 3.35 0 1.7 0 0 Z " fill="#EEEEEE" transform="translate(147,17)"/>
<path d="M0 0 C0.66 0.33 1.32 0.66 2 1 C0.02579865 3.52259061 -0.96745642 3.9929808 -4.1875 4.6875 C-5.5796875 4.8421875 -5.5796875 4.8421875 -7 5 C-2.25 1.125 -2.25 1.125 0 0 Z " fill="#626262" transform="translate(224,245)"/>
<path d="M0 0 C0.66 0 1.32 0 2 0 C1.67 1.98 1.34 3.96 1 6 C-0.32 5.67 -1.64 5.34 -3 5 C-3 4.34 -3 3.68 -3 3 C-2.01 3 -1.02 3 0 3 C0 2.01 0 1.02 0 0 Z " fill="#212121" transform="translate(19,153)"/>
<path d="M0 0 C-0.99 1.485 -0.99 1.485 -2 3 C-5.125 3.1875 -5.125 3.1875 -8 3 C-5.53387212 -0.1151089 -3.89156016 -0.31553191 0 0 Z " fill="#121212" transform="translate(146,40)"/>
</svg>
